<svg version="1.1" xmlns="http://www.w3.org/2000/svg" xmlns:xlink="http://www.w3.org/1999/xlink" width="484.000000pt" height="82.000000pt" viewBox="0,0,256,43.35938"><g fill="#ffffff" fill-rule="nonzero" stroke="none" stroke-width="1" stroke-linecap="butt" stroke-linejoin="miter" stroke-miterlimit="10" stroke-dasharray="" stroke-dashoffset="0" font-family="none" font-weight="none" font-size="none" text-anchor="none" style="mix-blend-mode: normal"><g transform="translate(-0.63554,0.01225) scale(0.52893,0.52893)"><g transform="translate(0,82) scale(0.1,-0.1)"><path d="M2010,751c0,-13 9,-20 30,-24l30,-6v-219c0,-226 -3,-242 -42,-242c-11,0 -18,-7 -18,-20c0,-19 7,-20 115,-20c108,0 115,1 115,20c0,13 -7,20 -18,20c-40,0 -42,15 -42,267v243h-85c-76,0 -85,-2 -85,-19z"></path><path d="M2630,750c0,-15 7,-20 25,-20c34,0 45,-27 45,-107c0,-63 -1,-66 -15,-46c-35,50 -142,53 -189,6c-35,-34 -50,-86 -50,-168c0,-123 39,-188 118,-200c48,-8 112,14 122,40c9,22 23,18 34,-10c9,-23 14,-25 80,-25c63,0 70,2 70,20c0,13 -7,20 -19,20c-48,0 -51,15 -51,271v239h-85c-78,0 -85,-2 -85,-20zM2660,552c47,-38 49,-224 4,-269c-68,-68 -128,36 -108,186c11,87 55,122 104,83z"></path><path d="M4097,726c-69,-25 -97,-66 -97,-140c0,-62 34,-98 146,-156c95,-48 113,-71 100,-123c-7,-30 -51,-57 -91,-57c-35,0 -82,48 -90,92c-6,33 -9,35 -33,29c-68,-18 -63,-103 6,-138c48,-23 174,-24 217,-1c95,51 119,163 48,230c-16,15 -63,43 -106,63c-43,20 -85,47 -93,60c-22,33 -14,74 18,98c40,30 77,15 103,-40c22,-46 38,-52 73,-27c31,21 27,70 -8,96c-34,25 -142,33 -193,14z"></path><path d="M110,710c0,-14 7,-20 24,-20c46,0 47,-12 44,-279c-3,-234 -4,-251 -24,-278c-11,-15 -35,-32 -52,-38c-22,-6 -32,-15 -32,-28c0,-18 5,-19 57,-13c65,8 107,29 137,69c20,27 21,44 26,295l5,267l33,3c24,2 32,8 32,23c0,18 -8,19 -125,19c-118,0 -125,-1 -125,-20z"></path><path d="M3450,711c0,-15 8,-21 33,-23l32,-3l5,-190c6,-213 10,-228 78,-261c50,-24 184,-25 228,-2c63,34 68,53 74,263l5,190l33,3c24,2 32,8 32,23c0,17 -8,19 -95,19c-88,0 -95,-1 -95,-20c0,-15 7,-20 25,-20c42,0 47,-27 43,-204c-3,-88 -8,-169 -12,-179c-18,-39 -95,-58 -150,-37c-47,18 -56,54 -56,229c0,88 3,166 6,175c4,10 18,16 35,16c22,0 29,5 29,20c0,19 -7,20 -125,20c-117,0 -125,-1 -125,-19z"></path><path d="M4380,711c0,-17 6,-21 29,-21c17,0 31,-6 35,-16c3,-9 6,-98 6,-199c0,-101 -3,-190 -6,-199c-4,-10 -18,-16 -35,-16c-22,0 -29,-5 -29,-20c0,-19 7,-20 130,-20c122,0 130,1 130,19c0,16 -8,20 -37,23l-38,3l-3,76l-3,76l61,6c114,10 173,64 174,158c1,55 -22,93 -75,124c-29,17 -56,20 -186,24c-150,3 -153,3 -153,-18zM4647,666c26,-22 28,-30 28,-91c0,-61 -3,-69 -28,-91c-16,-14 -41,-24 -58,-24h-29v115v115h29c17,0 42,-10 58,-24z"></path><path d="M500,609c-77,-23 -114,-88 -113,-199c1,-148 99,-225 242,-190c67,16 105,59 121,136c14,67 1,154 -29,194c-41,56 -142,83 -221,59zM594,569c37,-17 51,-63 50,-159c-1,-125 -35,-177 -97,-149c-37,17 -49,56 -49,154c0,111 15,146 69,164c1,1 13,-4 27,-10z"></path><path d="M1003,610c-12,-5 -28,-18 -35,-30c-17,-26 -26,-25 -30,3c-3,20 -9,22 -75,25c-67,3 -73,1 -73,-17c0,-13 8,-21 23,-23c21,-3 22,-6 25,-142c3,-144 -2,-166 -39,-166c-12,0 -19,-7 -19,-20c0,-19 7,-20 120,-20c113,0 120,1 120,20c0,14 -7,20 -24,20c-42,0 -48,20 -44,139c2,91 6,113 22,130c27,30 60,24 64,-12c3,-21 8,-27 19,-23c8,3 21,6 28,6c23,0 45,30 45,60c0,50 -65,75 -127,50z"></path><path d="M1364,610c-12,-5 -28,-18 -36,-29c-16,-23 -28,-18 -28,11c0,16 -9,18 -75,18c-67,0 -75,-2 -75,-19c0,-13 8,-21 23,-23c21,-3 22,-6 25,-142c3,-144 -2,-166 -39,-166c-12,0 -19,-7 -19,-20c0,-19 7,-20 115,-20c108,0 115,1 115,20c0,13 -7,20 -19,20c-36,0 -43,23 -39,144c3,124 16,156 64,156c45,0 54,-32 54,-192v-148h80c70,0 80,2 80,18c0,9 -10,22 -22,27c-22,10 -23,17 -28,147c-4,118 -8,140 -26,165c-29,39 -98,54 -150,33z"></path><path d="M1720,610c-31,-8 -70,-40 -70,-59c0,-20 29,-42 63,-48c32,-5 37,-3 37,13c0,25 27,64 45,64c27,0 45,-31 45,-79v-47l-75,-11c-91,-13 -121,-31 -136,-83c-35,-115 104,-198 192,-114l28,27l7,-27c6,-25 9,-26 75,-26c59,0 69,2 69,18c0,9 -10,22 -22,27c-22,10 -23,17 -28,151c-4,121 -8,145 -24,163c-34,37 -123,50 -206,31zM1840,361c0,-84 -60,-131 -96,-76c-34,53 5,125 68,125c27,0 28,-2 28,-49z"></path><path d="M2990,610c-31,-8 -70,-40 -70,-59c0,-20 29,-42 63,-48c32,-5 37,-3 37,13c0,25 27,64 45,64c27,0 45,-31 45,-79v-47l-75,-11c-91,-13 -121,-31 -136,-83c-35,-115 104,-198 192,-114l28,27l7,-27c6,-25 9,-26 75,-26c59,0 69,2 69,18c0,9 -10,22 -22,27c-22,10 -23,17 -28,151c-4,121 -8,145 -24,163c-34,37 -123,50 -206,31zM3110,361c0,-84 -60,-131 -96,-76c-34,53 5,125 68,125c27,0 28,-2 28,-49z"></path></g></g></g></svg>